PathFileType	4	(X/Y/Z)	SUBJ94_4_walk_RCNL2025.trc
DataRate	CameraRate	NumFrames	NumMarkers	Units	OrigDataRate	OrigDataStartFrame	OrigNumFrames
100	100	11	25	mm	100	223	297
Frame#	Time	R_Shoulder			L_Shoulder			C7			J_Notch			R_Elbow			L_Elbow			R_Wrist			L_Wrist			R_Asis			L_Asis			Sacral			Thoracic			Sternum			R_Thigh_Lateral			R_Knee_Lateral			R_Shank_Lateral			R_Ankle_Lateral			R_Heel			R_Toe			L_Thigh_Lateral			L_Knee_Lateral			L_Shank_Lateral			L_Ankle_Lateral			L_Heel			L_Toe		
		X1	Y1	Z1	X2	Y2	Z2	X3	Y3	Z3	X4	Y4	Z4	X5	Y5	Z5	X6	Y6	Z6	X7	Y7	Z7	X8	Y8	Z8	X9	Y9	Z9	X10	Y10	Z10	X11	Y11	Z11	X12	Y12	Z12	X13	Y13	Z13	X14	Y14	Z14	X15	Y15	Z15	X16	Y16	Z16	X17	Y17	Z17	X18	Y18	Z18	X19	Y19	Z19	X20	Y20	Z20	X21	Y21	Z21	X22	Y22	Z22	X23	Y23	Z23	X24	Y24	Z24	X25	Y25	Z25
223	2.22000000	1206.754028	1241.170044	-214.937790	1192.171387	1250.167969	-593.607300	1134.116699	1327.346558	-400.975403	1251.199341	1236.770630	-407.582916	1217.426758	957.159729	-133.869736	1090.495239	973.372925	-628.438721	1369.943604	791.396088	-152.574303	1146.636169	750.045013	-656.145905	1245.034912	853.668213	-263.229492	1266.094604	855.347107	-488.136597	1065.499634	908.417236	-401.224304	1070.582886	1126.284424	-401.034637	1287.427490	1041.477661	-396.717407	1137.796631	511.429199	-192.470612	1113.815674	419.661530	-247.052399	984.916382	289.689606	-219.782333	842.858704	151.444138	-306.409882	818.641235	183.444321	-357.014771	905.333313	38.854404	-336.699554	1281.846802	520.890930	-576.544617	1300.887329	427.060913	-518.022400	1323.530029	244.751648	-572.636475	1328.964722	44.922028	-465.017059	1291.057983	35.919357	-413.201447	1455.004761	38.721466	-440.969604
224	2.23000000	1218.416870	1243.006104	-216.180008	1205.651489	1251.555542	-594.929077	1146.388062	1328.778809	-402.703033	1263.789917	1238.706421	-408.772308	1227.374390	958.532104	-136.013382	1105.306274	974.463074	-630.583923	1377.228821	790.486267	-153.272522	1162.746704	751.393524	-657.918152	1257.658081	854.565918	-264.539612	1278.855103	857.186462	-489.143097	1078.259521	910.076721	-401.601044	1083.485718	1127.526611	-402.632538	1300.700928	1043.532593	-397.456970	1156.929443	510.757172	-192.511856	1135.101440	419.170074	-246.793732	1002.764282	294.054657	-220.173462	857.749756	160.314911	-307.718018	835.906433	193.147995	-359.147369	914.229675	42.630405	-335.856598	1292.097290	522.450134	-577.798035	1308.770386	427.686096	-519.094055	1329.165283	244.811951	-573.452026	1329.703979	44.844418	-465.406982	1291.331421	36.438389	-413.819000	1455.751465	37.133217	-440.664978
225	2.24000000	1229.974731	1244.890747	-217.335892	1219.032837	1253.000977	-596.168823	1158.571167	1330.284424	-404.362946	1276.262695	1240.687012	-409.875763	1237.080933	959.932922	-138.142197	1120.188599	975.580994	-632.744446	1383.975220	789.395081	-153.848785	1179.166565	752.855743	-659.715149	1270.054810	855.609741	-265.785797	1291.414429	859.032349	-490.122681	1090.822754	911.803650	-402.023193	1096.269897	1128.853394	-404.187958	1313.777222	1045.611816	-398.070465	1176.270874	510.307251	-192.598129	1156.876343	418.949860	-246.587128	1021.644714	298.370605	-220.569305	874.089966	168.771210	-309.006470	854.316895	202.215622	-361.168915	925.424072	46.819183	-334.995239	1301.698853	523.882324	-579.018616	1316.114380	428.300568	-520.140869	1334.211548	244.957581	-574.290405	1330.395752	44.921055	-465.817780	1291.626465	36.977207	-414.445129	1456.387817	36.078362	-440.473389
226	2.25000000	1241.428345	1246.796143	-218.402039	1232.293335	1254.482910	-597.324036	1170.661011	1331.839722	-405.946594	1288.610229	1242.682983	-410.890259	1246.555542	961.347473	-140.228760	1135.112671	976.706421	-634.902771	1390.225220	788.150360	-154.307762	1195.878052	754.422943	-661.525146	1282.216064	856.793701	-266.951477	1303.772827	860.846130	-491.067993	1103.188110	913.578796	-402.512817	1108.924683	1130.242920	-405.695831	1326.643799	1047.684937	-398.561218	1195.720459	510.134949	-192.749802	1179.052246	419.047729	-246.439575	1041.529419	302.539551	-220.955139	891.869507	176.575912	-310.223724	873.773560	210.420319	-362.996368	939.099487	51.254356	-334.192902	1310.633789	525.160645	-580.166992	1322.901855	428.879669	-521.133179	1338.600586	245.152756	-575.113159	1331.015259	45.106483	-466.211304	1291.916382	37.504387	-415.035889	1456.901367	35.463562	-440.363831
227	2.26000000	1252.778809	1248.695068	-219.377136	1245.413696	1255.980713	-598.394653	1182.653564	1333.420898	-407.447266	1300.827637	1244.666138	-411.815186	1255.807129	962.762268	-142.246124	1150.049561	977.820068	-637.041931	1396.023438	786.782562	-154.654129	1212.861145	756.086670	-663.334625	1294.142456	858.107422	-268.025391	1315.934570	862.591370	-491.974152	1115.360229	915.383240	-403.087067	1121.442383	1131.671509	-407.152313	1339.294556	1049.724731	-398.936890	1215.188721	510.286713	-192.984329	1201.539795	419.501099	-246.356461	1062.376221	306.461823	-221.318054	911.057922	183.500854	-311.324341	894.178223	217.551224	-364.561859	955.368347	55.740234	-333.525940	1318.901489	526.267517	-581.211365	1329.126099	429.404358	-522.046692	1342.290161	245.367325	-575.888306	1331.541992	45.358688	-466.558228	1292.178467	37.997822	-415.556488	1457.287720	35.187939	-440.311432
228	2.27000000	1264.027466	1250.561890	-220.261887	1258.378174	1257.473877	-599.382568	1194.546509	1335.003418	-408.860260	1312.912231	1246.609985	-412.652191	1264.843994	964.164978	-144.168701	1164.972168	978.903564	-639.146362	1401.415955	785.323334	-154.892197	1230.094299	757.838440	-665.128632	1305.843872	859.535767	-269.002167	1327.907837	864.234375	-492.839203	1127.349121	917.198425	-403.757416	1133.818237	1133.114746	-408.554749	1351.729736	1051.706421	-399.208893	1234.602051	510.796692	-193.314194	1224.250977	420.335022	-246.341629	1084.130615	310.039734	-221.647507	931.604980	189.338730	-312.271484	915.439697	223.422668	-365.816315	974.266174	60.066692	-333.059570	1326.519165	527.194580	-582.129333	1334.792358	429.862000	-522.863831	1345.271484	245.578766	-576.592590	1331.964600	45.642197	-466.839874	1292.396851	38.445015	-415.983948	1457.551758	35.152973	-440.298431
229	2.28000000	1275.175415	1252.372314	-221.058960	1271.174927	1258.943115	-600.291687	1206.338867	1336.562988	-410.182892	1324.863770	1248.490112	-413.405151	1273.674194	965.544617	-145.973328	1179.855713	979.939575	-641.201904	1406.449524	783.804230	-155.025719	1247.554504	759.669800	-666.891235	1317.338135	861.058411	-269.882751	1339.703247	865.745239	-493.664001	1139.168213	919.005798	-404.528717	1146.050537	1134.547852	-409.901611	1363.955322	1053.608398	-399.391693	1253.905151	511.683960	-193.745300	1247.099487	421.559998	-246.397354	1106.727173	313.181702	-221.935883	953.443970	193.913589	-313.038177	937.478943	227.881638	-366.731598	995.751709	64.025375	-332.838257	1333.520508	527.942505	-582.908875	1339.917480	430.246124	-523.574341	1347.571899	245.772873	-577.211853	1332.280640	45.929787	-467.048309	1292.563843	38.842106	-416.307922	1457.706177	35.270126	-440.313629
230	2.29000000	1286.224365	1254.103760	-221.772736	1283.796387	1260.369141	-601.127258	1218.031006	1338.075684	-411.414276	1336.684082	1250.284180	-414.079559	1282.305298	966.890869	-147.640030	1194.679199	980.911804	-643.196533	1411.170349	782.255066	-155.057770	1265.217590	761.571777	-668.605774	1328.649658	862.650085	-270.674194	1351.333496	867.098145	-494.452271	1150.834595	920.786743	-405.399078	1158.139771	1135.945435	-411.192413	1375.982056	1055.411987	-399.501923	1273.061768	512.951172	-194.276138	1270.002441	423.170807	-246.524490	1130.091553	315.806305	-222.178391	976.495544	197.089035	-313.607971	960.232544	230.813004	-367.300507	1019.713196	67.425507	-332.878448	1339.954712	528.519409	-583.548035	1344.529907	430.555908	-524.175110	1349.252930	245.943207	-577.740601	1332.496338	46.202881	-467.185211	1292.679321	39.192066	-416.529938	1457.769409	35.465851	-440.351288
231	2.30000000	1297.175659	1255.735107	-222.408981	1296.238647	1261.733887	-601.895569	1229.624878	1339.517944	-412.555328	1348.376953	1251.971680	-414.682434	1290.744507	968.193787	-149.152679	1209.425537	981.805176	-645.120483	1415.623901	780.702728	-154.990738	1283.059021	763.534973	-670.255554	1339.807983	864.280579	-271.389008	1362.812134	868.271667	-495.210144	1162.366577	922.522217	-406.359650	1170.089233	1137.282837	-412.427338	1387.824341	1057.100708	-399.557648	1292.053711	514.584351	-194.897675	1292.879517	425.146332	-246.722733	1154.142456	317.845764	-222.372986	1000.672974	198.773834	-313.974396	983.655457	232.142288	-367.535461	1045.980469	70.107422	-333.164368	1345.882446	528.939453	-584.053772	1348.668335	430.795197	-524.669434	1350.404663	246.089600	-578.181091	1332.624146	46.450966	-467.259491	1292.748901	39.502502	-416.661133	1457.762939	35.683941	-440.409607
232	2.31000000	1308.031616	1257.247314	-222.974579	1308.502686	1263.019897	-602.603699	1241.124023	1340.867310	-413.608429	1359.948242	1253.534302	-415.221741	1298.999146	969.443726	-150.499466	1224.081909	982.605469	-646.966309	1419.854248	779.170135	-154.826416	1301.054199	765.548981	-671.824066	1350.846069	865.915649	-272.044189	1374.152710	869.248657	-495.946045	1173.783569	924.192871	-407.395294	1181.904175	1138.535889	-413.607208	1399.499756	1058.660400	-399.577393	1310.876953	516.553528	-195.594193	1315.653198	427.450409	-246.990814	1178.792969	319.249115	-222.519867	1025.887939	198.924301	-314.139832	1007.721741	231.836197	-367.465179	1074.340454	71.952766	-333.648285	1351.372803	529.220764	-584.440308	1352.379761	430.971222	-525.065857	1351.137573	246.216309	-578.540833	1332.680664	46.670311	-467.284515	1292.781860	39.783428	-416.719177	1457.708130	35.885639	-440.489014
233	2.32000000	1318.794434	1258.622070	-223.477112	1320.592773	1264.210449	-603.258850	1252.533081	1342.102661	-414.577209	1371.405151	1254.955322	-415.706177	1307.076660	970.630432	-151.673157	1238.640381	983.299622	-648.729004	1423.904053	777.675262	-154.566246	1319.178467	767.602478	-673.295593	1361.798950	867.518127	-272.659790	1385.368408	870.016235	-496.669769	1185.104370	925.778809	-408.485138	1193.591309	1139.681396	-414.733246	1411.027588	1060.078125	-399.579315	1329.537598	518.814392	-196.344788	1338.248535	430.033508	-247.326645	1203.952393	319.984650	-222.620712	1052.056641	197.543945	-314.113403	1032.424561	229.901306	-367.130554	1104.554688	72.890594	-334.254242	1356.498291	529.382812	-584.726501	1355.717896	431.093079	-525.376465	1351.571777	246.329880	-578.830750	1332.684326	46.862350	-467.275146	1292.789551	40.045372	-416.724548	1457.624756	36.047955	-440.590485
